<svg xmlns="http://www.w3.org/2000/svg" viewBox="0 0 64 64" id="museum-location">
  <g>
    <ellipse cx="32" cy="53.5" fill="#fccd1d" rx="29" ry="7.5"></ellipse>
    <ellipse cx="32" cy="53.5" fill="#f9a215" rx="20" ry="3.5"></ellipse>
    <path fill="#dd051d" d="M54 25a22 22 0 1 0-31.135 20.013l7.818 7.836a2 2 0 0 0 2.634 0l7.818-7.836A22 22 0 0 0 54 25Z"></path>
    <circle cx="32" cy="25" r="18" fill="#fff"></circle>
    <path fill="#e6e7e8" d="M21 29.5h22v4H21zM43 22.5H21V18l11-4.5L43 18v4.5z"></path>
    <path fill="#d1d3d4" d="M24 22.5h16v7H24z"></path>
    <circle cx="32" cy="57" r="1"></circle>
    <path d="M42.635 45.376a23 23 0 1 0-21.27 0C8.512 46.344 2 49.073 2 53.5 2 60.525 18.314 62 32 62s30-1.475 30-8.5c0-4.427-6.512-7.156-19.365-8.124ZM11 25a21 21 0 1 1 29.72 19.1.983.983 0 0 0-.292.2l-5.01 5.022-.014.014-2.746 2.764a.994.994 0 0 1-1.266.047l-7.82-7.836a.983.983 0 0 0-.292-.2A21.063 21.063 0 0 1 11 25Zm21 35c-17.271 0-28-2.49-28-6.5 0-3.276 7.166-5.553 19.667-6.267l1.943 1.946C19.329 49.532 11 50.555 11 53.5c0 3.326 10.618 4.2 16.947 4.429h.037a1 1 0 0 0 .036-2C18.445 55.588 14 54.214 13.107 53.5c.88-.7 5.19-2.036 14.412-2.409l2.506 2.509a2.964 2.964 0 0 0 1.956.732 3.093 3.093 0 0 0 2.043-.779l2.459-2.464c9.221.373 13.53 1.709 14.41 2.409-.9.714-5.336 2.088-14.911 2.431a1 1 0 0 0 .036 2h.037C42.383 57.7 53 56.826 53 53.5c0-2.944-8.328-3.968-14.609-4.321l1.942-1.946C52.834 47.947 60 50.224 60 53.5c0 4.01-10.729 6.5-28 6.5Z"></path>
    <path d="M51 25a19 19 0 1 0-19 19 19.021 19.021 0 0 0 19-19Zm-36 0a17 17 0 1 1 17 17 17.019 17.019 0 0 1-17-17Z"></path>
    <path d="M44 33.5v-4a1 1 0 0 0-1-1h-2v-5h2a1 1 0 0 0 1-1V18a1 1 0 0 0-.621-.926l-11-4.5a1.014 1.014 0 0 0-.758 0l-11 4.5A1 1 0 0 0 20 18v4.5a1 1 0 0 0 1 1h2v5h-2a1 1 0 0 0-1 1v4a1 1 0 0 0 1 1h22a1 1 0 0 0 1-1Zm-22-12v-2.829l10-4.09 10 4.09V21.5Zm17 2v5h-3.333v-5Zm-5.333 0v5h-3.334v-5Zm-5.334 0v5H25v-5ZM42 32.5H22v-2h20Z"></path>
    <circle cx="32" cy="18.5" r="1"></circle>
  </g>
</svg>
