<?xml version="1.0" standalone="no"?>
<!DOCTYPE svg PUBLIC "-//W3C//DTD SVG 20010904//EN"
 "http://www.w3.org/TR/2001/REC-SVG-20010904/DTD/svg10.dtd">
<svg version="1.0" xmlns="http://www.w3.org/2000/svg"
 width="885.000000pt" height="1280.000000pt" viewBox="0 0 885.000000 1280.000000"
 preserveAspectRatio="xMidYMid meet">
<g transform="translate(0.000000,1280.000000) scale(0.100000,-0.100000)"
fill="#000000" stroke="none">
<path d="M4351 12613 c-444 -888 -3284 -6895 -3968 -8393 -279 -611 -394 -900
-374 -938 19 -35 92 -77 127 -73 18 2 695 714 2759 2901 1204 1276 1495 1580
1514 1580 35 0 714 -702 2251 -2330 1076 -1139 1400 -1480 1763 -1853 238
-245 294 -297 316 -297 27 0 111 47 111 63 0 53 -178 477 -453 1077 -395 863
-3040 6503 -3712 7915 -86 182 -175 369 -198 418 -22 48 -44 87 -49 87 -4 0
-43 -71 -87 -157z m71 -494 c10 -128 27 -2045 27 -3089 0 -707 -3 -930 -12
-946 -7 -12 -507 -547 -1112 -1190 -2848 -3026 -2828 -3006 -2833 -2981 -4 22
3367 7200 3833 8160 38 79 72 136 78 134 7 -2 15 -38 19 -88z"/>
<path d="M3040 1680 l0 -1680 210 0 210 0 0 1405 c0 1135 2 1405 13 1405 7 0
348 -632 757 -1405 l745 -1405 298 0 297 0 0 1680 0 1680 -210 0 -210 0 -2
-1397 c-2 -1112 -6 -1398 -16 -1398 -6 0 -345 628 -752 1395 l-739 1395 -300
3 -301 2 0 -1680z"/>
</g>
</svg>
